<svg width="23" height="24" viewBox="0 0 23 24" fill="none" xmlns="http://www.w3.org/2000/svg">
<g id="iconoir:profile-circle">
<g id="Group">
<path id="Vector" d="M11.125 2C6.09104 2 2.01044 6.477 2.01044 12C2.01044 17.523 6.09104 22 11.125 22C16.159 22 20.2396 17.523 20.2396 12C20.2396 6.477 16.159 2 11.125 2Z" stroke="#FE5C24" stroke-opacity="0.6" stroke-width="1.5" stroke-linecap="round" stroke-linejoin="round"/>
<path id="Vector_2" d="M4.08038 18.346C4.08038 18.346 6.11202 15.5 11.125 15.5C16.1381 15.5 18.1706 18.346 18.1706 18.346M11.125 12C11.8502 12 12.5457 11.6839 13.0585 11.1213C13.5713 10.5587 13.8594 9.79565 13.8594 9C13.8594 8.20435 13.5713 7.44129 13.0585 6.87868C12.5457 6.31607 11.8502 6 11.125 6C10.3998 6 9.70434 6.31607 9.19155 6.87868C8.67875 7.44129 8.39067 8.20435 8.39067 9C8.39067 9.79565 8.67875 10.5587 9.19155 11.1213C9.70434 11.6839 10.3998 12 11.125 12Z" stroke="#FE5C24" stroke-opacity="0.6" stroke-width="1.5" stroke-linecap="round" stroke-linejoin="round"/>
</g>
</g>
</svg>
